<svg width="32" height="33" viewBox="0 0 32 33" fill="none" xmlns="http://www.w3.org/2000/svg">
<path d="M16.0002 0.15741C10.9642 0.15741 6.85724 4.26439 6.85724 9.30029C6.85724 11.1072 7.39318 12.8032 8.31485 14.2355C7.40493 15.3994 6.85724 16.8589 6.85724 18.4432V18.4454C6.85815 18.97 7.01007 19.4744 7.12957 19.9833L0 27.1128V32.1574H5.04471L12.1765 25.0257C12.6844 25.1454 13.1864 25.2987 13.71 25.3004H13.7123H13.7145C17.4881 25.3004 20.5717 22.2169 20.5717 18.4433C20.5717 14.6697 17.4881 11.5862 13.7145 11.5862C12.3637 11.5862 11.1045 11.9861 10.0403 12.6664C9.47614 11.6669 9.14299 10.5224 9.14299 9.30042C9.14299 5.49981 12.1995 2.44329 16.0002 2.44329C19.8009 2.44329 22.8575 5.49981 22.8575 9.30042C22.8575 9.63129 22.8196 9.95843 22.7726 10.2826C23.1346 10.5163 23.4781 10.7871 23.7927 11.1017L24.7191 12.0282C24.9937 11.1505 25.1432 10.2327 25.1432 9.30029C25.1432 4.26439 21.0362 0.15741 16.0002 0.15741ZM19.7391 11.6061C21.642 13.2877 22.8575 15.7342 22.8575 18.4432C22.8575 22.2455 20.4731 25.5392 17.1342 26.9074L21.2525 31.0257C22.7609 32.534 25.2398 32.534 26.7482 31.0257L30.8687 26.9052C32.3771 25.3969 32.3771 22.9179 30.8687 21.4096L22.1767 12.7177C21.5013 12.0424 20.6271 11.6783 19.7391 11.6061ZM14.8574 15.0145C16.1062 15.0145 17.1431 16.0514 17.1431 17.3003C17.1431 18.5491 16.1062 19.586 14.8574 19.586C13.7769 19.586 12.8586 18.8092 12.6296 17.7913C13.3108 18.0621 14.0292 18.2615 14.7837 18.3628C14.9325 18.3828 15.0837 18.3734 15.2289 18.3351C15.374 18.2967 15.5101 18.23 15.6295 18.1391C15.7489 18.0481 15.8492 17.9345 15.9247 17.8048C16.0002 17.675 16.0494 17.5316 16.0694 17.3828C16.0895 17.234 16.0801 17.0828 16.0417 16.9376C16.0033 16.7925 15.9368 16.6564 15.8458 16.5371C15.7548 16.4177 15.6411 16.3174 15.5114 16.2419C15.3816 16.1664 15.2383 16.1172 15.0895 16.0972C14.4739 16.0147 13.9015 15.8294 13.3529 15.5994C13.7575 15.2405 14.2823 15.0145 14.8574 15.0145Z" fill="#026CF9"/>
</svg>
