<svg width="1068" height="789" viewBox="0 0 1068 789" fill="none" xmlns="http://www.w3.org/2000/svg">
<path d="M29 319.657C101.094 344.875 204.432 376.989 321 382.415C400.886 386.133 486.985 377.317 573.5 345.157C764.5 274.157 981 343.659 981 625.157" stroke="#EBEDF9" stroke-width="4" stroke-linecap="round" stroke-dasharray="12 12"/>
<path d="M29 265.685C29 271.152 22.4979 284.249 18.356 292.037C16.9042 294.767 13.0958 294.767 11.644 292.037C7.50212 284.249 1 271.152 1 265.685C1 257.661 7.26801 251.157 15 251.157C22.732 251.157 29 257.661 29 265.685Z" fill="#EBEDF9" stroke="white" stroke-width="2"/>
<circle cx="14.5" cy="266.657" r="6.5" fill="white"/>
<circle cx="15.5" cy="306.657" r="6.5" fill="#EBEDF9"/>
</svg>
