<svg width="1195" height="842" viewBox="0 0 1195 842" fill="none" xmlns="http://www.w3.org/2000/svg">
<path d="M1053.5 3.15735C1080 330.657 934.728 413.993 795.5 392.158C499 345.657 342.52 97.2692 172.5 261.157C20 408.157 37.5 507.157 119 604.157C262.5 760.157 416.5 660.657 323 585.157C210.477 494.297 98 625.157 362 787.157" stroke="#EBEDF9" stroke-width="4" stroke-linecap="round" stroke-dasharray="12 12"/>
<path d="M408.117 792.115L409.204 800.055L421.327 805.745L416.59 796.092L408.117 792.115ZM393.376 791.139L392.477 804.091L406.562 810.702L397.869 817.023L406.342 821L420.149 817.08L431.29 822.309C434.091 823.624 437.094 823.02 437.936 820.972C438.779 818.923 437.165 816.152 434.364 814.837L403.02 800.124L401.809 795.098L393.376 791.139Z" fill="#EBEDF9"/>
</svg>
