<svg width="45" height="33" viewBox="0 0 45 33" fill="none" xmlns="http://www.w3.org/2000/svg">
<path d="M0 0.157471V1.75749V32.1575H31.9999V30.5575C31.9999 29.6548 32.6973 28.9574 33.5999 28.9574C34.5025 28.9574 35.1999 29.6548 35.1999 30.5575V32.1575H44.7998V0.157471H35.1999V1.75749C35.1999 2.6601 34.5025 3.35751 33.5999 3.35751C32.6973 3.35751 31.9999 2.6601 31.9999 1.75749V0.157471H0ZM17.5999 6.55754C22.8829 6.55754 27.1999 10.8745 27.1999 16.1575C27.1999 21.4404 22.8829 25.7574 17.5999 25.7574C12.317 25.7574 7.99997 21.4404 7.99997 16.1575C7.99997 10.8745 12.317 6.55754 17.5999 6.55754ZM31.9999 8.15756H35.1999V14.5575H31.9999V8.15756ZM17.5999 10.0326C16.5733 11.9101 15.9999 14.0055 15.9999 16.1575C15.9999 18.3086 16.5736 20.4024 17.5999 22.2794C18.6263 20.4024 19.1999 18.3086 19.1999 16.1575C19.1999 14.0055 18.6266 11.9101 17.5999 10.0326ZM13.6031 11.1825C12.1458 12.3522 11.2 14.1289 11.2 16.1575C11.2 18.1845 12.1447 19.9596 13.5999 21.1293C13.0779 19.5319 12.7999 17.856 12.7999 16.1575C12.7999 14.4574 13.0794 12.7809 13.6031 11.1825ZM21.5968 11.1825C22.1204 12.7809 22.3999 14.4574 22.3999 16.1575C22.3999 17.856 22.122 19.5319 21.5999 21.1293C23.0552 19.9596 23.9999 18.1845 23.9999 16.1575C23.9999 14.1289 23.054 12.3522 21.5968 11.1825ZM31.9999 17.7575H35.1999V24.1574H31.9999V17.7575Z" fill="#BD00CD"/>
</svg>
