<svg width="41" height="56" viewBox="0 0 41 56" fill="none" xmlns="http://www.w3.org/2000/svg">
<path d="M40.5732 16.92L36.6098 14.17C36.4496 14.0597 36.261 14.0005 36.068 14H24.8954V11.5H36.068C36.261 11.4995 36.4496 11.4403 36.6098 11.33L40.5683 8.58C40.7012 8.48852 40.8101 8.36497 40.8853 8.22023C40.9606 8.07549 41 7.914 41 7.75C41 7.586 40.9606 7.42451 40.8853 7.27977C40.8101 7.13503 40.7012 7.01148 40.5683 6.92L36.6098 4.17C36.4496 4.05971 36.261 4.00055 36.068 4H24.8954V1C24.8954 0.734784 24.7925 0.48043 24.6094 0.292893C24.4264 0.105357 24.1781 0 23.9192 0H17.0857C16.8268 0 16.5785 0.105357 16.3955 0.292893C16.2124 0.48043 16.1095 0.734784 16.1095 1V23.5H4.93689C4.74219 23.4996 4.55181 23.5588 4.39021 23.67L0.431713 26.42C0.298828 26.5115 0.189947 26.635 0.114662 26.7798C0.0393771 26.9245 0 27.086 0 27.25C0 27.414 0.0393771 27.5755 0.114662 27.7202C0.189947 27.865 0.298828 27.9885 0.431713 28.08L4.3951 30.83C4.55669 30.9412 4.74707 31.0004 4.94177 31H16.1095V45C16.1095 45.2652 16.2124 45.5196 16.3955 45.7071C16.5785 45.8946 16.8268 46 17.0857 46H23.9192C24.1781 46 24.4264 45.8946 24.6094 45.7071C24.7925 45.5196 24.8954 45.2652 24.8954 45V21.5H36.068C36.261 21.4995 36.4496 21.4403 36.6098 21.33L40.5683 18.58C40.7012 18.4885 40.8101 18.365 40.8853 18.2202C40.9606 18.0755 41 17.914 41 17.75C41 17.586 40.9606 17.4245 40.8853 17.2798C40.8101 17.135 40.7012 17.0115 40.5683 16.92H40.5732Z" fill="#EBEDF9"/>
<ellipse cx="20" cy="53" rx="14" ry="3" fill="#EBEDF9"/>
</svg>
