<svg width="39" height="33" viewBox="0 0 39 33" fill="none" xmlns="http://www.w3.org/2000/svg">
<path d="M7.18809 0.157471C4.82319 0.157471 2.87524 2.12837 2.87524 4.52113C2.87524 6.91384 4.82319 8.88462 7.18809 8.88462C9.55298 8.88462 11.5009 6.91384 11.5009 4.52113C11.5009 2.12837 9.55298 0.157471 7.18809 0.157471ZM30.19 0.157471C27.8251 0.157471 25.8771 2.12837 25.8771 4.52113C25.8771 6.91384 27.8251 8.88462 30.19 8.88462C32.5549 8.88462 34.5028 6.91384 34.5028 4.52113C34.5028 2.12837 32.5549 0.157471 30.19 0.157471ZM4.31285 10.3392C1.9484 10.3392 0 12.3106 0 14.7028V24.8845H1.43762H2.87524V32.1571H11.5009V24.8845H14.3762V14.6743V14.647C14.2856 12.3261 12.4285 10.34 10.0633 10.34L4.31285 10.3392ZM28.7524 10.3392C26.3879 10.3392 24.4395 12.3106 24.4395 14.7028V17.3306L21.5643 24.6032V24.8847V27.7938H25.8771V32.1575H34.5028V27.7938H38.8157V24.6032L35.9404 17.3306V14.7028C35.9404 12.3106 33.992 10.3392 31.6276 10.3392H28.7524Z" fill="#FFC736"/>
</svg>
