<svg width="415" height="117" viewBox="0 0 415 117" fill="none" xmlns="http://www.w3.org/2000/svg">
<path d="M0.800001 15.16L18.68 12.28V30.88H40.16V45.76H18.68V67.96C18.68 71.72 19.32 74.72 20.6 76.96C21.96 79.2 24.64 80.32 28.64 80.32C30.56 80.32 32.52 80.16 34.52 79.84C36.6 79.44 38.48 78.92 40.16 78.28L42.68 92.2C40.52 93.08 38.12 93.84 35.48 94.48C32.84 95.12 29.6 95.44 25.76 95.44C20.88 95.44 16.84 94.8 13.64 93.52C10.44 92.16 7.88 90.32 5.96 88C4.04 85.6 2.68 82.72 1.88 79.36C1.16 76 0.800001 72.28 0.800001 68.2V15.16ZM92.7603 46.72C91.1603 46.32 89.2803 45.92 87.1203 45.52C84.9603 45.04 82.6403 44.8 80.1603 44.8C79.0403 44.8 77.6803 44.92 76.0803 45.16C74.5603 45.32 73.4003 45.52 72.6003 45.76V94H54.7203V34.24C57.9203 33.12 61.6803 32.08 66.0003 31.12C70.4003 30.08 75.2803 29.56 80.6403 29.56C81.6003 29.56 82.7603 29.64 84.1203 29.8C85.4803 29.88 86.8403 30.04 88.2003 30.28C89.5603 30.44 90.9203 30.68 92.2803 31C93.6403 31.24 94.8003 31.56 95.7603 31.96L92.7603 46.72ZM123.225 94H105.345V30.88H123.225V94ZM124.905 12.64C124.905 15.92 123.825 18.52 121.665 20.44C119.585 22.28 117.105 23.2 114.225 23.2C111.345 23.2 108.825 22.28 106.665 20.44C104.585 18.52 103.545 15.92 103.545 12.64C103.545 9.36 104.585 6.79999 106.665 4.95999C108.825 3.04 111.345 2.08 114.225 2.08C117.105 2.08 119.585 3.04 121.665 4.95999C123.825 6.79999 124.905 9.36 124.905 12.64ZM180.473 62.92C180.473 57.4 179.233 53 176.753 49.72C174.273 46.36 170.593 44.68 165.713 44.68C164.113 44.68 162.633 44.76 161.273 44.92C159.913 45 158.793 45.12 157.913 45.28V77.56C159.033 78.28 160.473 78.88 162.233 79.36C164.073 79.84 165.913 80.08 167.753 80.08C176.233 80.08 180.473 74.36 180.473 62.92ZM198.713 62.44C198.713 67.32 198.113 71.76 196.913 75.76C195.713 79.76 193.953 83.2 191.633 86.08C189.313 88.96 186.433 91.2 182.993 92.8C179.553 94.4 175.593 95.2 171.113 95.2C168.633 95.2 166.313 94.96 164.153 94.48C161.993 94 159.913 93.32 157.913 92.44V116.2H140.033V33.04C141.633 32.56 143.473 32.12 145.553 31.72C147.633 31.24 149.793 30.84 152.033 30.52C154.353 30.2 156.673 29.96 158.993 29.8C161.393 29.56 163.673 29.44 165.833 29.44C171.033 29.44 175.673 30.24 179.753 31.84C183.833 33.36 187.273 35.56 190.073 38.44C192.873 41.24 194.993 44.68 196.433 48.76C197.953 52.84 198.713 57.4 198.713 62.44ZM209.455 62.92C209.455 57.32 210.295 52.44 211.975 48.28C213.735 44.04 216.015 40.52 218.815 37.72C221.615 34.92 224.815 32.8 228.415 31.36C232.095 29.92 235.855 29.2 239.695 29.2C248.655 29.2 255.735 31.96 260.935 37.48C266.135 42.92 268.735 50.96 268.735 61.6C268.735 62.64 268.695 63.8 268.615 65.08C268.535 66.28 268.455 67.36 268.375 68.32H227.815C228.215 72 229.935 74.92 232.975 77.08C236.015 79.24 240.095 80.32 245.215 80.32C248.495 80.32 251.695 80.04 254.815 79.48C258.015 78.84 260.615 78.08 262.615 77.2L265.015 91.72C264.055 92.2 262.775 92.68 261.175 93.16C259.575 93.64 257.775 94.04 255.775 94.36C253.855 94.76 251.775 95.08 249.535 95.32C247.295 95.56 245.055 95.68 242.815 95.68C237.135 95.68 232.175 94.84 227.935 93.16C223.775 91.48 220.295 89.2 217.495 86.32C214.775 83.36 212.735 79.88 211.375 75.88C210.095 71.88 209.455 67.56 209.455 62.92ZM251.455 56.08C251.375 54.56 251.095 53.08 250.615 51.64C250.215 50.2 249.535 48.92 248.575 47.8C247.695 46.68 246.535 45.76 245.095 45.04C243.735 44.32 242.015 43.96 239.935 43.96C237.935 43.96 236.215 44.32 234.775 45.04C233.335 45.68 232.135 46.56 231.175 47.68C230.215 48.8 229.455 50.12 228.895 51.64C228.415 53.08 228.055 54.56 227.815 56.08H251.455ZM307.733 95.2C302.533 95.12 298.293 94.56 295.013 93.52C291.813 92.48 289.253 91.04 287.333 89.2C285.493 87.28 284.213 85 283.493 82.36C282.853 79.64 282.533 76.6 282.533 73.24V3.76L300.413 0.879997V69.64C300.413 71.24 300.533 72.68 300.773 73.96C301.013 75.24 301.453 76.32 302.093 77.2C302.813 78.08 303.813 78.8 305.093 79.36C306.373 79.92 308.093 80.28 310.253 80.44L307.733 95.2ZM338.382 94H320.502V30.88H338.382V94ZM340.062 12.64C340.062 15.92 338.982 18.52 336.822 20.44C334.742 22.28 332.262 23.2 329.382 23.2C326.502 23.2 323.982 22.28 321.822 20.44C319.742 18.52 318.702 15.92 318.702 12.64C318.702 9.36 319.742 6.79999 321.822 4.95999C323.982 3.04 326.502 2.08 329.382 2.08C332.262 2.08 334.742 3.04 336.822 4.95999C338.982 6.79999 340.062 9.36 340.062 12.64ZM414.229 62.32C414.229 67.28 413.509 71.84 412.069 76C410.629 80.08 408.549 83.6 405.829 86.56C403.109 89.44 399.829 91.68 395.989 93.28C392.229 94.88 387.989 95.68 383.269 95.68C378.629 95.68 374.389 94.88 370.549 93.28C366.789 91.68 363.549 89.44 360.829 86.56C358.109 83.6 355.989 80.08 354.469 76C352.949 71.84 352.189 67.28 352.189 62.32C352.189 57.36 352.949 52.84 354.469 48.76C356.069 44.68 358.229 41.2 360.949 38.32C363.749 35.44 367.029 33.2 370.789 31.6C374.629 30 378.789 29.2 383.269 29.2C387.829 29.2 391.989 30 395.749 31.6C399.589 33.2 402.869 35.44 405.589 38.32C408.309 41.2 410.429 44.68 411.949 48.76C413.469 52.84 414.229 57.36 414.229 62.32ZM395.989 62.32C395.989 56.8 394.869 52.48 392.629 49.36C390.469 46.16 387.349 44.56 383.269 44.56C379.189 44.56 376.029 46.16 373.789 49.36C371.549 52.48 370.429 56.8 370.429 62.32C370.429 67.84 371.549 72.24 373.789 75.52C376.029 78.72 379.189 80.32 383.269 80.32C387.349 80.32 390.469 78.72 392.629 75.52C394.869 72.24 395.989 67.84 395.989 62.32Z" fill="#026CF9"/>
</svg>
